<svg width="14" height="14" viewBox="0 0 14 14" fill="none" xmlns="http://www.w3.org/2000/svg">
<path d="M3.00016 8.33337H11.0002V7.00004H3.00016V8.33337ZM3.00016 6.33337H11.0002V5.00004H3.00016V6.33337ZM3.00016 4.33337H11.0002V3.00004H3.00016V4.33337ZM13.6668 13.6667L11.0002 11H1.66683C1.30016 11 0.986274 10.8695 0.725163 10.6084C0.464052 10.3473 0.333496 10.0334 0.333496 9.66671V1.66671C0.333496 1.30004 0.464052 0.986152 0.725163 0.725041C0.986274 0.46393 1.30016 0.333374 1.66683 0.333374H12.3335C12.7002 0.333374 13.0141 0.46393 13.2752 0.725041C13.5363 0.986152 13.6668 1.30004 13.6668 1.66671V13.6667ZM1.66683 9.66671H11.5668L12.3335 10.4167V1.66671H1.66683V9.66671Z" fill="#3F484A"/>
</svg>
