<svg width="172" height="40" viewBox="0 0 172 40" fill="none" xmlns="http://www.w3.org/2000/svg">
<g clip-path="url(#clip0_16_53286)">
<path d="M39.401 30.4602V37.63H0V30.4602H15.8242V24.0211H2.14334V0.913353H37.2576V8.08314H10.0327V16.897H37.7137V24.0211H23.6679V30.4602H39.401Z" fill="#191C1D"/>
<path d="M85.0001 13.9742H80.4398V21.0984H72.7329V0H80.4398V6.48478H85.0001V13.9742ZM70.9088 18.541C69.9055 18.9672 68.5678 19.3021 66.8957 19.5457C65.2236 19.7892 63.4603 19.911 61.6058 19.911H44.7327V0.456677H68.6742V6.80445H52.4396V13.5632H61.925C63.7187 13.5632 65.406 13.4567 66.9869 13.2436C68.5982 13 69.9055 12.6803 70.9088 12.2845V18.541ZM46.0552 22.4684H80.4398V39H46.0552V22.4684ZM53.7621 32.6522H72.7329V28.8162H53.7621V32.6522Z" fill="#191C1D"/>
<path d="M171.617 15.4695L167.165 15.2326L166.801 22.2832L159.277 21.8829L160.355 1.00237L167.879 1.40267L167.548 7.82049L172 8.05735L171.617 15.4695ZM157.626 19.2572C156.625 19.6269 155.302 19.8889 153.657 20.043C152.012 20.1972 150.284 20.2262 148.474 20.1299L132 19.2535L132.994 0L156.369 1.24352L156.044 7.52576L140.194 6.68253L139.849 13.3715L149.11 13.8642C150.861 13.9574 152.514 13.9396 154.068 13.8107C155.654 13.6534 156.946 13.4049 157.946 13.0653L157.626 19.2572ZM133.161 21.8531L166.731 23.6391L165.886 40L132.316 38.2141L133.161 21.8531ZM140.165 32.3321L158.686 33.3175L158.882 29.521L140.361 28.5357L140.165 32.3321Z" fill="#191C1D"/>
<path d="M91 36.1314C100.57 36.1314 102.389 32.5137 104.215 29.4659M104.215 29.4659C110.915 28.9072 127 28.2631 127 38M104.215 29.4659C105.601 27.1524 105.998 20.5442 104.215 16.3781M104.215 16.3781C102.709 12.8594 101.898 9.68397 100.57 8.54796C117.618 -0.353645 125.633 3.95981 126.256 4.64667M104.215 16.3781C107.017 17.3351 116.154 18.6749 125.633 16.3781" stroke="#191C1D" stroke-width="8"/>
<path d="M97.5 11C100.538 11 103 8.53757 103 5.5C103 2.46243 100.538 0 97.5 0C94.4624 0 92 2.46243 92 5.5C92 8.53757 94.4624 11 97.5 11Z" fill="#53C1D0"/>
</g>
<defs>
<clipPath id="clip0_16_53286">
<rect width="172" height="40" fill="white"/>
</clipPath>
</defs>
</svg>
